HIERARCHY
ROOT Hips
{
	OFFSET 0.00000 0.00000 0.00000
	CHANNELS 6 Xposition Yposition Zposition Yrotation Zrotation Xrotation 
	JOINT Lumbar
	{
		OFFSET 0 0 0
		CHANNELS 3 Zrotation Xrotation Yrotation
		JOINT Neck
		{
			OFFSET 0.00 0.2701 0.00
			CHANNELS 3 Zrotation Xrotation Yrotation
			End Site
			{
				OFFSET 0.00 0.1379 0.00
			}
		}
		JOINT RightShoulder
		{
			OFFSET 0.0119 0.2289 0.1181
			CHANNELS 3 Zrotation Xrotation Yrotation
			JOINT RightElbow
			{
				OFFSET 0.00 -0.1475 0.00
				CHANNELS 2 Zrotation Yrotation
				JOINT RightWrist
				{
					OFFSET 0.00 -0.1605 0.00
					CHANNELS 2 Zrotation Xrotation
					End Site
					{
						OFFSET 0.0040 -0.1068 0.0006
					}
				}
			}
		}
		JOINT LeftShoulder
		{
			OFFSET 0.0119 0.2289 -0.1181
			CHANNELS 3 Zrotation Xrotation Yrotation
			JOINT LeftElbow
			{
				OFFSET 0.00 -0.1475 0.00
				CHANNELS 2 Zrotation Yrotation
				JOINT LeftWrist
				{
					OFFSET 0.00 -0.1605 0.00
					CHANNELS 2 Zrotation Xrotation
					End Site
					{
						OFFSET 0.0040 -0.1068 -0.0006
					}
				}
			}
		}
	}
	JOINT RightHip
	{
		OFFSET 0.0316 -0.0424 0.0458
		CHANNELS 3 Zrotation Xrotation Yrotation
		JOINT RightKnee
		{
			OFFSET 0.00 -0.2438 0.00
			CHANNELS 1 Zrotation
			JOINT RightAnkle
			{
				OFFSET 0.00 -0.2449 0.00
				CHANNELS 3 Zrotation Xrotation Yrotation
				End Site
				{
					OFFSET 0.1237 -0.0542 0.0051
				}
			}
		}
	}
	JOINT LeftHip
	{
		OFFSET 0.0316 -0.0424 -0.0458
		CHANNELS 3 Zrotation Xrotation Yrotation
		JOINT LeftKnee
		{
			OFFSET 0.00 -0.2438 0.00
			CHANNELS 1 Zrotation
			JOINT LeftAnkle
			{
				OFFSET 0.00 -0.2449 0.00
				CHANNELS 3 Zrotation Xrotation Yrotation
				End Site
				{
					OFFSET 0.1237 -0.0542 -0.0051
				}
			}
		}
	}
}
MOTION
Frames: 33
Frame Time: 0.02
0.31844 0.06797 -0.14112 20.42293 -19.10987 -7.53865 42.44532 1.03036 2.24341 -8.36869 12.75767 -0.83079 135.67877 -29.84111 -88.05905 5.34034 65.89511 -6.62267 7.79689 -22.50264 138.27659 -4.33898 8.67561 -71.08671 -21.87213 0.58117 30.53016 -5.72879 -1.81347 -15.40128 -11.61073 -4.99282 -3.57421 26.01455 5.78688 4.16742 -18.49898 -8.38342 4.42874 3.10079
0.31858 0.06797 -0.13959 18.78986 -19.03577 -7.30224 42.28247 1.08241 2.15833 -8.29643 12.82742 -0.83079 134.89825 -30.2927 -68.91304 5.46417 74.62638 -4.68785 6.33389 -22.55333 138.04691 -4.14492 8.77561 -71.08975 -21.84728 0.59358 31.04267 -5.66898 -2.61941 -15.7328 -11.52564 -5.02708 -3.59019 25.85454 5.57535 3.17414 -18.40401 -8.68127 4.65955 3.24238
0.31882 0.06806 -0.13793 17.17839 -18.90239 -7.06537 42.06279 1.14002 2.0846 -8.26987 12.91087 -0.83079 134.00976 -30.91685 -44.47645 5.61979 85.35034 -2.27438 4.40998 -22.604 137.80394 -3.56828 8.9053 -71.20595 -21.82896 0.70614 31.46372 -5.62487 -3.80928 -16.13466 -11.48614 -5.07926 -3.62003 25.58389 5.33312 1.88208 -18.24762 -9.04444 4.9061 3.39422
0.31904 0.06811 -0.13632 15.57244 -18.79679 -6.82957 41.87085 1.19133 1.99509 -8.23429 12.99047 -0.83079 133.21809 -31.44644 -22.94011 5.75364 94.74638 -0.15659 2.72131 -22.64843 137.56897 -3.08716 9.03276 -71.33119 -21.8267 0.78571 31.92195 -5.56894 -4.80062 -16.50569 -11.43901 -5.124 -3.64481 25.36178 5.11672 0.78494 -18.12051 -9.36958 5.13891 3.53755
0.31916 0.06817 -0.13476 13.89634 -18.68639 -6.58893 41.67018 1.2594 1.95467 -8.15514 13.06137 -0.83079 132.2222 -32.04149 0.8454 5.91815 105.93197 2.29818 0.91053 -22.7178 137.32519 -2.90839 9.11696 -71.2214 -21.74986 0.81492 32.40013 -5.53235 -5.89276 -16.87422 -11.33888 -5.16628 -3.66481 25.14603 4.84842 -0.56509 -17.98875 -9.73007 5.40046 3.6977
0.31951 0.06824 -0.13305 12.37465 -18.5736 -6.35896 41.47555 1.29345 1.81285 -8.17209 13.15214 -0.83079 131.62804 -32.54164 21.0318 6.02674 113.87472 4.16019 -0.73927 -22.73815 137.09898 -2.0434 9.29326 -71.60335 -21.82186 0.96797 32.81365 -5.45905 -6.86641 -17.26089 -11.35676 -5.21735 -3.69748 24.892 4.6819 -1.46003 -17.85102 -10.0328 5.60561 3.82509
0.32044 0.06831 -0.13095 11.26079 -18.45342 -6.15564 41.2979 1.23353 1.39031 -8.48319 13.3067 -0.83079 132.15585 -32.74525 31.40008 5.96935 112.20643 4.29271 -1.97157 -22.593 136.89634 0.91564 9.75949 -73.52607 -22.37667 1.48688 33.08057 -5.28392 -7.41838 -17.71578 -11.7187 -5.29322 -3.76659 24.54823 4.80059 -1.00159 -17.7196 -10.15528 5.65004 3.85874
0.3216 0.0684 -0.12869 10.30461 -18.33554 -5.96382 41.13078 1.13891 0.86404 -8.88202 13.47852 -0.83079 133.09328 -32.84695 37.72851 5.8553 107.2374 3.8084 -3.00258 -22.4035 136.71591 4.49885 10.30984 -75.90154 -23.06847 2.11862 33.28335 -5.07048 -7.83759 -18.17996 -12.19263 -5.37644 -3.8471 24.17139 5.02373 -0.07879 -17.58264 -10.21828 5.63723 3.85911
0.32268 0.0685 -0.12648 9.28558 -18.22686 -5.76868 40.96759 1.05909 0.38383 -9.21366 13.63428 -0.83079 133.85386 -32.9901 44.93287 5.76961 103.88298 3.5879 -4.03044 -22.25446 136.54468 7.60204 10.79289 -77.92993 -23.64824 2.66673 33.50965 -4.87284 -8.3187 -18.61693 -12.59583 -5.45299 -3.91913 23.81758 5.20129 0.61714 -17.44329 -10.31146 5.65125 3.87514
0.32364 0.06854 -0.12438 8.23019 -18.07358 -5.56516 40.76546 0.98321 -0.08986 -9.66071 13.82494 -0.83079 134.57611 -33.15767 56.23991 5.6739 100.10153 3.44781 -5.46238 -22.02158 136.2953 11.5409 11.39762 -80.55387 -24.4342 3.35321 33.7581 -4.68372 -8.80859 -19.15368 -13.08348 -5.54399 -4.00539 23.428 5.36927 1.37073 -17.32319 -10.39329 5.66244 3.88927
0.32491 0.0687 -0.122 7.28751 -18.01358 -5.38221 40.64791 0.89125 -0.60378 -9.88957 13.94715 -0.83079 135.4709 -33.25053 58.14313 5.58533 96.41629 2.99518 -6.01333 -21.95045 136.20944 13.89082 11.77112 -82.04974 -24.82836 3.7791 33.94441 -4.46604 -9.24113 -19.4835 -13.42234 -5.60668 -4.06476 23.10418 5.58303 2.11674 -17.16164 -10.48423 5.66563 3.8993
0.32695 0.06914 -0.11889 6.61872 -18.21859 -5.24958 40.75913 0.75965 -1.18675 -9.4775 13.87353 -0.83079 136.79393 -33.13892 33.56495 5.52899 93.63911 1.76005 -4.05317 -22.35681 136.61047 11.62716 11.46278 -80.26755 -24.06222 3.43901 33.99171 -4.19187 -9.56794 -19.24282 -13.31285 -5.58706 -4.04493 22.99011 5.89244 2.74457 -16.89463 -10.61068 5.66131 3.90635
0.3293 0.0697 -0.11549 6.05711 -18.51594 -5.13772 40.95548 0.61374 -1.80904 -8.84603 13.73102 -0.83079 138.26725 -32.95894 -0.09128 5.48186 91.08566 0.24125 -1.23442 -22.92353 137.16792 7.7561 10.92298 -77.34602 -22.90548 2.83588 33.97588 -3.88792 -9.83608 -18.79288 -13.05121 -5.53899 -3.99792 22.93986 6.24524 3.34739 -16.58513 -10.74887 5.6507 3.91032
0.33154 0.07022 -0.1122 5.4461 -18.76638 -5.01901 41.11496 0.47682 -2.42528 -8.32548 13.62144 -0.83079 139.63827 -32.8248 -28.62333 5.43125 88.53782 -1.10249 1.10932 -23.40397 137.62685 4.66518 10.50388 -74.97688 -21.95692 2.36489 33.97844 -3.58879 -10.11572 -18.43597 -12.8659 -5.50549 -3.96475 22.8482 6.58201 3.95222 -16.29018 -10.88406 5.64247 3.9155
0.33369 0.0707 -0.10898 4.84543 -19.03882 -4.89066 41.26839 0.32821 -2.99834 -7.75944 13.50484 -0.83079 141.16727 -32.62561 -61.47832 5.37576 85.45497 -2.65754 3.81613 -23.94031 138.20165 1.38058 10.02208 -72.46787 -20.88342 1.8443 34.02259 -3.32447 -10.45434 -18.08707 -12.65507 -5.46557 -3.92591 22.80896 6.90765 4.61183 -16.01445 -11.00713 5.63427 3.9203
0.33607 0.07127 -0.10556 4.24425 -19.28601 -4.78606 41.4529 0.20101 -3.66544 -7.23646 13.38723 -0.83079 142.39731 -32.54606 -87.47143 5.33331 83.54247 -3.83778 5.97026 -24.39781 138.57289 -1.88285 9.61499 -69.98577 -19.97588 1.36358 33.96549 -2.98191 -10.65869 -17.67301 -12.45871 -5.43186 -3.89203 22.67455 7.26439 5.1463 -15.68948 -11.15926 5.62526 3.92561
0.33906 0.07209 -0.10171 3.63487 -19.45228 -4.75109 41.71625 0.1365 -4.61506 -6.87288 13.27491 -0.83079 142.7651 -32.82155 -91.94909 5.32526 85.17107 -3.85921 6.36868 -24.60824 138.33579 -4.76376 9.46854 -67.74936 -19.61905 1.05194 33.64894 -2.42371 -10.49949 -17.11861 -12.34811 -5.42471 -3.8805 22.2771 7.70483 5.33065 -15.23461 -11.38698 5.61589 3.93301
0.34227 0.07299 -0.09767 3.01674 -19.58791 -4.7374 42.00543 0.09419 -5.65111 -6.56261 13.16509 -0.83079 142.8246 -33.21868 -89.25076 5.3302 87.92442 -3.49994 6.18403 -24.73258 137.88997 -7.55783 9.40511 -65.59606 -19.44254 0.78976 33.23226 -1.78945 -10.20917 -16.50806 -12.25521 -5.42423 -3.87445 21.78002 8.1729 5.389 -14.73425 -11.64422 5.60611 3.94118
0.34536 0.07383 -0.09371 2.38923 -19.72995 -4.7081 42.27348 0.04188 -6.62615 -6.23561 13.06031 -0.83079 143.02338 -33.5556 -90.04747 5.32905 89.9326 -3.3486 6.27803 -24.88958 137.54462 -10.3499 9.30491 -63.47421 -19.18488 0.50806 32.85852 -1.19446 -9.98413 -15.93064 -12.14794 -5.4191 -3.86458 21.31731 8.62238 5.51053 -14.25534 -11.88936 5.59665 3.94922
0.34855 0.07476 -0.08979 1.82244 -19.90653 -4.70515 42.58358 -0.01124 -7.69554 -5.86774 12.92878 -0.83079 143.23187 -33.91148 -90.18392 5.32893 92.90889 -3.06347 6.344 -25.07779 137.18038 -13.37409 9.1932 -61.02504 -18.9105 0.20544 32.49283 -0.57776 -9.73282 -15.31341 -12.06189 -5.42004 -3.85953 20.89855 9.09927 5.60904 -13.76443 -12.12916 5.58654 3.95628
0.35157 0.07552 -0.08573 1.12508 -20.0032 -4.65139 42.81182 -0.05731 -8.58695 -5.60254 12.85229 -0.83079 143.34403 -34.25693 -89.8629 5.32966 94.16544 -2.95866 6.31914 -25.18051 136.8047 -15.87161 9.12748 -59.28667 -18.71859 -0.03926 32.08809 0.01039 -9.50602 -14.76898 -11.93811 -5.41 -3.84593 20.36913 9.5246 5.72266 -13.29736 -12.38713 5.57756 3.96549
0.35413 0.07578 -0.0813 0.07397 -19.88116 -4.4579 42.80081 -0.08836 -8.97788 -5.59254 12.94555 -0.83079 143.27278 -34.55027 -90.06469 5.32934 90.12429 -3.47869 6.17744 -25.05008 136.4408 -16.93681 9.17575 -59.54718 -18.71532 -0.12722 31.59416 0.50906 -9.37875 -14.43605 -11.70385 -5.37062 -3.8088 19.51264 9.80464 5.93572 -12.83105 -12.68643 5.57368 3.98147
0.3565 0.07585 -0.07672 -1.10939 -19.67995 -4.21134 42.707 -0.11317 -9.18433 -5.68881 13.09068 -0.83079 143.11384 -34.8279 -90.00102 5.32943 84.36298 -4.18575 5.96172 -24.83927 136.07341 -17.46235 9.26732 -60.51811 -18.79048 -0.15838 31.06536 0.97449 -9.28148 -14.17999 -11.43219 -5.31957 -3.76274 18.55681 10.0311 6.16355 -12.40581 -13.00307 5.57058 3.99937
0.35894 0.07602 -0.07221 -2.23618 -19.51864 -3.98516 42.65562 -0.14138 -9.46697 -5.74648 13.20083 -0.83079 142.98863 -35.1091 -89.99383 5.32946 79.56914 -4.78328 5.78121 -24.67619 135.71167 -18.23204 9.33532 -61.12889 -18.82762 -0.22077 30.55725 1.45003 -9.17039 -13.89195 -11.17964 -5.27238 -3.72003 17.67581 10.27907 6.36686 -12.01059 -13.31303 5.56598 4.01581
0.36149 0.07616 -0.06768 -3.34946 -19.34135 -3.7755 42.58642 -0.16645 -9.78457 -5.7615 13.36067 -0.83079 142.87559 -35.4103 -90.01667 5.32942 74.03441 -5.47042 5.57427 -24.46244 135.32494 -19.02263 9.42213 -61.88775 -18.87828 -0.26104 30.02696 1.95027 -9.05363 -13.58938 -10.91846 -5.23174 -3.68056 16.66467 10.53915 6.6403 -11.40381 -13.61973 5.56641 4.03497
0.36374 0.0763 -0.06317 -4.5207 -19.17696 -3.51856 42.53245 -0.19688 -9.98485 -5.89422 13.42742 -0.83079 142.72416 -35.66359 -90.00168 5.32945 69.61475 -6.02136 5.41226 -24.33682 134.99296 -19.61955 9.47946 -62.52044 -18.92029 -0.33162 29.53363 2.38904 -8.95985 -13.33607 -10.66641 -5.17431 -3.63204 15.90402 10.762 6.77366 -11.25354 -13.936 5.55628 4.04866
0.36524 0.07648 -0.0587 -5.83268 -19.0848 -3.14364 42.55657 -0.2436 -9.90226 -6.28909 13.2409 -0.83079 142.45721 -35.79576 -90.0068 5.32944 68.7333 -6.14139 5.39396 -24.46845 134.80723 -20.0108 9.44082 -62.50446 -18.89116 -0.52395 29.17182 2.67527 -8.90184 -13.20068 -10.44709 -5.0758 -3.56196 15.84533 10.88544 6.50996 -12.30539 -14.2815 5.51945 4.04901
0.36644 0.07667 -0.05427 -7.19591 -19.00567 -2.72291 42.59587 -0.29604 -9.70848 -6.80509 12.95606 -0.83079 142.16219 -35.87814 -90.00715 5.32943 69.02122 -6.12094 5.42577 -24.69234 134.67926 -20.19173 9.37146 -62.35764 -18.85462 -0.74421 28.84555 2.89861 -8.86963 -13.11238 -10.23862 -4.9604 -3.4829 16.04528 10.97464 6.10671 -13.82305 -14.63398 5.47159 4.04341
0.36776 0.07685 -0.04986 -8.52718 -18.90895 -2.32334 42.6176 -0.34599 -9.56756 -7.28993 12.70511 -0.83079 141.90157 -35.97806 -90.00558 5.32943 68.74217 -6.17327 5.43675 -24.87903 134.52913 -20.33675 9.31824 -62.3567 -18.83946 -0.93639 28.48914 3.14452 -8.84059 -13.00239 -10.02598 -4.85096 -3.40707 16.13651 11.08613 5.77232 -15.16132 -14.97923 5.42686 4.03899
0.36914 0.07705 -0.0453 -9.8999 -18.85716 -1.9206 42.68113 -0.39523 -9.40962 -7.67887 12.50055 -0.83079 141.54536 -36.09952 -90.00678 5.32942 68.55126 -6.19628 5.43744 -25.0457 134.35974 -21.00768 9.25696 -62.02663 -18.75259 -1.19253 28.18832 3.41507 -8.75278 -12.8963 -9.80822 -4.74797 -3.33428 16.18695 11.16859 5.41522 -16.37069 -15.34463 5.38955 4.04087
0.37032 0.07721 -0.04105 -11.19643 -18.71786 -1.51416 42.66275 -0.44743 -9.26411 -8.29343 12.17656 -0.83079 141.38397 -36.16378 -90.00638 5.32943 68.48003 -6.24195 5.47143 -25.27352 134.24644 -20.5533 9.20509 -62.32808 -18.81039 -1.32157 27.78335 3.6193 -8.78917 -12.79222 -9.60498 -4.62817 -3.25346 16.38511 11.30257 5.07229 -17.95101 -15.66647 5.33484 4.02844
0.37105 0.07725 -0.0376 -12.27187 -18.31755 -1.11 42.41073 -0.50584 -9.17261 -9.51157 11.53598 -0.83079 141.75688 -36.08792 -90.00616 5.32945 68.43273 -6.40747 5.59533 -25.67867 134.25523 -16.93756 9.18199 -64.51887 -19.28445 -1.10528 27.05877 3.65994 -9.19625 -12.68196 -9.4328 -4.46186 -3.14997 16.92744 11.59988 4.80129 -20.50323 -15.89271 5.22905 3.97591
0.37159 0.07725 -0.03448 -13.26786 -17.83223 -0.70389 42.07681 -0.56701 -9.09989 -10.94854 10.78032 -0.83079 142.32834 -35.95515 -90.00598 5.32949 68.47843 -6.59587 5.74953 -26.13709 134.32178 -12.22207 9.16986 -67.32439 -19.90068 -0.75908 26.23257 3.63542 -9.72082 -12.57137 -9.27629 -4.28006 -3.03926 17.60939 11.94789 4.54973 -23.39808 -16.0703 5.10721 3.90962
